<svg xmlns="http://www.w3.org/2000/svg" xmlns:xlink="http://www.w3.org/1999/xlink" version="1.1" x="0px" y="0px" viewBox="0 0 100 125" enable-background="new 0 0 100 100" xml:space="preserve"><g><path fill="#525558" d="M42.9,12c2.5,0,4.9,1.4,6.3,3.7l1.6,2.5l2.8-0.7c1-0.3,2.1-0.4,3.2-0.4c2.8,0,5.6,0.9,7.5,2.6l1.5,1.3l2-0.4   c1.3-0.3,2.6-0.5,3.9-0.5c8.7,0,15.8,6.3,15.8,13.9c0,3.6-1.6,7-4.4,9.6L80,46.5l3.1,2.9c0.7,0.6,1.4,1.6,1.4,2.6   c0,1.4-1.4,3-3.7,4.2l-2.2,1.2l0.2,2.6c0,0.1,0,0.2,0,0.3c0,0,0,0.1,0,0.1c0,4.6-5.7,8.5-12.4,8.5c-3.5,0-6.7-1-9.1-2.8l-3.6-2.7   l-2.3,3.8c-1.2,2-3.2,3.2-5.4,3.2c-2.2,0-4.2-1.2-5.4-3.2l-1.7-2.8l-3.1,1.1c-1.7,0.6-3.5,0.9-5.3,0.9c-7.3,0-13.3-5-13.3-11.2   c0-0.2,0-0.5,0.1-0.8l0.2-2.2L15.8,51c-2.1-1.6-3.3-4-3.3-6.7c0-3.6,2.3-6.8,5.6-7.9l2.5-0.9l0.2-2.7c0.4-5.7,5.1-10.3,11-10.9   l3.1-0.3l0.5-3C36.1,14.8,39.2,12,42.9,12 M42.9,8c-5.7,0-10.5,4.3-11.4,10.1c-7.9,0.7-14.2,6.9-14.6,14.6   c-4.8,1.7-8.3,6.3-8.3,11.7c0,4,1.9,7.6,4.8,9.8c0,0.4-0.1,0.8-0.1,1.1c0,8.4,7.7,15.2,17.3,15.2c2.4,0,4.6-0.4,6.7-1.2   c1.9,3.1,5.1,5.2,8.8,5.2c3.7,0,7-2.1,8.8-5.2c3,2.2,7,3.6,11.5,3.6c9,0,16.4-5.6,16.4-12.5c0-0.2,0-0.4,0-0.7   c3.6-2,5.8-4.7,5.8-7.7c0-2-1-3.9-2.7-5.5c3.5-3.2,5.7-7.7,5.7-12.6C91.5,24,82.6,16,71.7,16c-1.7,0-3.2,0.2-4.8,0.5   c-2.5-2.2-6.1-3.5-10.1-3.5c-1.5,0-2.9,0.2-4.2,0.5C50.5,10.2,46.9,8,42.9,8L42.9,8z"/><path fill="#525558" d="M63.6,77.5c2.3,0,4.1,1.2,4.1,2.3c0,0.9-1.6,2.3-4.2,2.4l-0.1,0c-2.3,0-4.1-1.2-4.1-2.3C59.4,78.9,61,77.5,63.6,77.5   L63.6,77.5 M63.6,74.5c0,0-0.1,0-0.1,0c-4,0-7.2,2.5-7.1,5.4c0,2.9,3.2,5.2,7.1,5.2c0,0,0.1,0,0.1,0c4,0,7.2-2.5,7.1-5.4   C70.7,76.8,67.5,74.5,63.6,74.5L63.6,74.5z"/><path fill="#525558" d="M75.2,87.1c0.1,0,0.2,0,0.2,0c0.9,0,1.8,0.3,2.4,0.8c0.4,0.3,0.6,0.6,0.6,0.8c0,0.5-1.2,1.3-2.8,1.3c-0.1,0-0.2,0-0.2,0   c-1.9-0.1-3-1.1-3-1.6C72.3,87.9,73.5,87.1,75.2,87.1 M75.2,85.1c-2.6,0-4.8,1.4-4.8,3.2c-0.1,1.9,2.1,3.5,4.9,3.6   c0.1,0,0.2,0,0.3,0c2.6,0,4.8-1.4,4.8-3.2c0.1-1.9-2.1-3.5-4.9-3.6C75.4,85.1,75.3,85.1,75.2,85.1L75.2,85.1z"/></g></svg>
