<svg width="1104" height="974" viewBox="0 0 1104 974" version="1.1" xmlns="http://www.w3.org/2000/svg" xmlns:xlink="http://www.w3.org/1999/xlink">
<g id="Canvas" fill="none">
<g id="Vector">
<path d="M 340 41L 5 41L 0 41L 5 297L 27 297L 48 297L 69 330L 77 325L 89 325L 100 336L 109 356L 134 375L 162 398L 173 398L 173 391L 187 391L 195 382L 210 398L 225 398L 236 391L 253 398L 268 398L 288 391L 300 398L 300 415L 308 422L 308 437L 386 472L 386 451L 386 437L 395 406L 395 382L 412 356L 418 356L 423 342L 418 336L 429 303L 441 287L 446 267L 460 232L 475 227L 480 219L 496 210L 496 192L 510 178L 510 162L 518 138L 518 130L 518 116L 524 94L 530 75L 530 52L 536 35L 541 26L 541 16L 536 0L 518 6L 510 6L 503 6L 491 6L 480 16L 470 21L 470 26L 470 35L 460 35L 452 35L 446 47L 436 35L 423 26L 412 21L 400 16L 381 21L 367 21L 340 41Z" transform="translate(12 14) scale(2)" fill="#212529"/>
<path d="M 5 41L 340 41L 367 21L 381 21L 400 16L 412 21L 423 26L 436 35L 446 47L 452 35L 460 35L 470 35L 470 26L 470 21L 480 16L 491 6L 503 6L 510 6L 518 6L 536 0L 541 16L 541 26L 536 35L 530 52L 530 75L 524 94L 518 116L 518 130L 518 138L 510 162L 510 178L 496 192L 496 210L 480 219L 475 227L 460 232L 446 267L 441 287L 429 303L 418 336L 423 342L 418 356L 412 356L 395 382L 395 406L 386 437L 386 451L 386 472L 308 437L 308 422L 300 415L 300 398L 288 391L 268 398L 253 398L 236 391L 225 398L 210 398L 195 382L 187 391L 173 391L 173 398L 162 398L 134 375L 109 356L 100 336L 89 325L 77 325L 69 330L 48 297L 27 297L 5 297L 0 41L 5 41Z" stroke-width="10" transform="translate(12 14) scale(2)" stroke="#212529"/>
</g>
</g>
</svg>

