<svg xmlns="http://www.w3.org/2000/svg" xmlns:xlink="http://www.w3.org/1999/xlink" version="1.1" x="0px" y="0px" viewBox="0 0 100 100" enable-background="new 0 0 100 100" xml:space="preserve"><g><g><path fill="#525558" d="M50,47.9c-1.158,0-2.1,0.942-2.1,2.1c0,1.158,0.942,2.1,2.1,2.1c1.158,0,2.1-0.941,2.1-2.1    C52.1,48.842,51.158,47.9,50,47.9z M50,51.1c-0.606,0-1.1-0.493-1.1-1.1s0.493-1.1,1.1-1.1s1.1,0.493,1.1,1.1S50.606,51.1,50,51.1    z"></path><path fill="#525558" d="M50.5,5C25.923,5,6,24.923,6,49.5C6,74.077,25.923,94,50.5,94C75.077,94,95,74.077,95,49.5C95,24.923,75.077,5,50.5,5z     M49,9.038V44.33L36.987,11.327C40.767,9.984,44.803,9.192,49,9.038z M35.12,12.042l12.002,32.975L24.705,18.301    C27.819,15.722,31.327,13.605,35.12,12.042z M23.197,19.615l22.391,26.684L15.601,28.986    C17.661,25.495,20.223,22.335,23.197,19.615z M14.627,30.734l29.961,17.298l-33.891-5.977    C11.446,38.043,12.786,34.239,14.627,30.734z M10,49.5c0-1.856,0.137-3.679,0.379-5.47l33.861,5.972l-33.722,5.946    C10.182,53.847,10,51.694,10,49.5z M10.885,57.913l33.702-5.941l-29.55,17.062C13.137,65.599,11.723,61.862,10.885,57.913z     M16.047,70.759l29.541-17.056L23.682,79.812C20.719,77.188,18.141,74.14,16.047,70.759z M25.211,81.101L47.12,54.989    L35.439,87.084C31.727,85.592,28.287,83.566,25.211,81.101z M49,89.962c-4.078-0.149-8.001-0.904-11.687-2.178L49,55.672V89.962z     M50,52.786c-1.536,0-2.786-1.25-2.786-2.786s1.25-2.786,2.786-2.786s2.786,1.25,2.786,2.786S51.536,52.786,50,52.786z     M56.899,89.484l-0.179-1.021c0.127-0.114,0.2-0.282,0.169-0.463l-0.199-1.147c-0.049-0.277-0.313-0.463-0.592-0.414    s-0.465,0.313-0.416,0.59l0.199,1.147c0.031,0.181,0.158,0.313,0.315,0.378l0.176,1.006c-1.758,0.256-3.55,0.404-5.373,0.427    V55.673l11.798,32.413C60.889,88.695,58.919,89.164,56.899,89.484z M64.687,87.43L52.878,54.986l22.31,26.587    C72.022,84.016,68.491,86.002,64.687,87.43z M76.739,80.313L54.41,53.702L84.683,71.18C82.501,74.608,79.82,77.687,76.739,80.313z     M85.715,69.466L55.412,51.971l34.664,6.111C89.198,62.136,87.71,65.962,85.715,69.466z M55.759,50.001l34.79-6.134l-0.348-1.97    l-34.789,6.134l30.593-17.663l-1-1.732L54.41,46.3l22.708-27.063l-1.531-1.285L52.878,45.016l12.083-33.199l-1.879-0.684    L51,44.329V9.013C73.102,9.283,91,27.336,91,49.5c0,2.254-0.193,4.463-0.55,6.618L55.759,50.001z"></path></g></g></svg>
