<?xml version="1.0" standalone="no"?>
<!DOCTYPE svg PUBLIC "-//W3C//DTD SVG 20010904//EN"
 "http://www.w3.org/TR/2001/REC-SVG-20010904/DTD/svg10.dtd">
<svg version="1.0" xmlns="http://www.w3.org/2000/svg"
 width="200.000000pt" height="200.000000pt" viewBox="0 0 200.000000 200.000000"
 preserveAspectRatio="xMidYMid meet">
<metadata>
Created by potrace 1.11, written by Peter Selinger 2001-2013
</metadata>
<g transform="translate(0.000000,200.000000) scale(0.100000,-0.100000)"
fill="#000000" stroke="none">
<path d="M835 1584 c-244 -42 -434 -188 -550 -422 -55 -110 -105 -272 -121
-387 -3 -27 -8 -59 -11 -70 -2 -11 -7 -79 -10 -151 -5 -112 -3 -135 12 -165
65 -127 325 -237 630 -267 93 -9 331 -9 425 0 305 29 569 138 631 261 20 39
21 52 16 183 -3 78 -11 162 -16 185 -5 24 -15 71 -21 104 -30 150 -104 326
-187 443 -105 147 -278 253 -468 287 -68 12 -256 12 -330 -1z"/>
</g>
</svg>
